<?xml version="1.0" standalone="no"?>
<!DOCTYPE svg PUBLIC "-//W3C//DTD SVG 20010904//EN" "http://www.w3.org/TR/2001/REC-SVG-20010904/DTD/svg10.dtd">
<svg version="1.0" xmlns="http://www.w3.org/2000/svg" width="1200.000000pt" height="300.000000pt" viewBox="0 0 1200.000000 300.000000" preserveAspectRatio="xMidYMid meet">
  <defs>
    <style>
      @keyframes blink {
        0%    { opacity: 0 }
        40%   { opacity: 0 }
        40.1% { opacity: 1 }
        99.9% { opacity: 1 }
        100%  { opacity: 0 }
      }
      .blink{animation: blink 1.2s linear infinite;}
      .word{stroke-width:2 ; fill: #4265af ; stroke: #294f80;}
    </style>
  </defs>
  <g transform="translate(0.000000,300.000000) scale(0.100000,-0.100000)" fill="#000000" stroke="none">
    <path class="blink" opacity="0.9" fill="#00474f" d="M5991 2351 c-35 -9 -51 -25 -51 -52 0 -13 14 -17 68 -21 115 -8 173 -50 139 -102 -25 -38 -150 -171 -167 -178 -26 -10 -384 -386 -394 -413 -9 -22 -4 -31 39 -75 27 -28 57 -50 67 -50 22 0 378 437 378 464 0 12 142 176 161 186 46 25 103 0 114 -49 3 -16 17 -38 30 -51 19 -18 27 -20 44 -11 22 12 71 72 71 88 0 16 -43 51 -73 58 -29 8 -57 39 -57 65 0 26 -71 87 -134 116 -65 29 -171 41 -235 25z"/>
    <path fill="#294f80" d="M10239 2220 c-46 -8 -122 -52 -142 -83 -13 -20 -26 -25 -86 -30 -38 -3 -96 -16 -128 -29 l-58 -24 -50 19 c-60 23 -134 18 -191 -11 -143 -74 -179 -268 -71 -380 28 -29 33 -43 43 -120 15 -111 44 -188 102 -265 182 -239 542 -262 758 -48 97 96 153 227 154 355 0 59 -25 166 -52 219 -18 35 -18 40 -2 85 18 53 13 125 -12 178 -45 94 -161 153 -265 134z m-84 -236 c178 -46 297 -198 297 -379 0 -88 -20 -155 -67 -221 -176 -248 -548 -217 -679 56 -28 59 -31 74 -31 165 0 91 3 106 32 167 50 106 141 182 253 212 72 19 123 19 195 0z"/>
    <path fill="#ff9c6e" d="M9962 1968 c-18 -18 -15 -49 22 -205 l33 -141 -93 -69 c-52 -37 -96 -76 -100 -86 -7 -21 12 -47 35 -47 19 0 229 154 237 174 9 24 -74 360 -92 373 -22 16 -27 16 -42 1z"/>
    <path class="word" d="M6940 2197 c-63 -22 -70 -63 -45 -244 8 -59 17 -125 20 -145 l5 -37 -52 26 c-99 50 -274 43 -382 -15 -124 -67 -183 -234 -145 -412 22 -105 119 -203 233 -236 77 -23 255 -23 339 -1 157 42 246 147 278 334 15 88 6 300 -20 458 -35 209 -57 254 -132 275 -42 12 -55 12 -99 -3z m-90 -549 c64 -33 90 -82 90 -174 0 -92 -28 -149 -90 -183 -96 -53 -231 -20 -277 68 -43 82 -28 205 32 261 56 52 171 65 245 28z"/>
    <path class="word" d="M3463 2184 c-91 -33 -130 -122 -79 -181 23 -26 30 -28 119 -31 80 -3 100 -1 135 17 42 22 72 63 72 101 0 37 -30 81 -65 96 -44 18 -128 17 -182 -2z"/>
    <path class="word" d="M3874 2173 c-36 -36 -46 -86 -57 -278 -17 -323 13 -609 73 -699 72 -106 287 -109 375 -4 29 34 33 88 9 112 -21 22 -67 20 -106 -4 -50 -30 -84 -26 -105 13 -16 28 -18 61 -18 262 0 127 2 300 5 385 4 132 2 160 -13 186 -20 38 -34 44 -97 44 -33 0 -54 -6 -66 -17z"/>
    <path class="word" d="M1423 2140 c-55 -24 -97 -89 -118 -181 -35 -155 -29 -554 10 -686 18 -62 76 -119 131 -129 61 -11 253 3 344 26 160 41 319 134 401 235 60 76 83 140 84 235 0 77 -3 91 -34 150 -43 84 -146 185 -248 245 -177 104 -459 156 -570 105z m305 -216 c125 -36 235 -114 277 -194 70 -136 -77 -318 -291 -360 -32 -6 -77 -10 -99 -8 -33 2 -42 9 -60 38 -18 32 -20 51 -20 255 0 164 3 228 14 253 13 31 16 32 68 32 30 0 80 -7 111 -16z"/>
    <path class="word" d="M7620 1937 c-119 -29 -209 -88 -269 -179 -55 -81 -75 -164 -69 -285 5 -110 26 -169 82 -238 116 -141 450 -179 661 -76 89 44 121 115 74 162 -19 19 -29 21 -83 16 -33 -3 -94 -18 -135 -32 -55 -18 -95 -25 -150 -25 -115 1 -180 37 -216 122 -14 35 -14 38 4 48 11 5 48 10 83 10 101 0 303 28 364 51 194 73 193 309 -2 405 -48 24 -70 27 -172 30 -73 2 -138 -1 -172 -9z m232 -155 c68 -40 60 -140 -14 -175 -77 -37 -291 -44 -319 -11 -28 34 40 142 113 180 68 35 166 38 220 6z"/>
    <path class="word" d="M2591 1919 c-118 -23 -190 -60 -216 -109 -21 -40 -19 -63 8 -88 31 -30 112 -29 203 0 95 31 221 31 281 0 49 -26 69 -52 78 -104 l7 -38 -153 0 c-338 -1 -470 -80 -457 -276 6 -88 40 -137 132 -184 69 -35 69 -35 205 -35 154 1 206 14 302 79 l53 36 33 -32 c39 -38 93 -44 136 -15 22 14 27 25 27 57 0 31 -8 48 -41 86 -45 52 -44 40 -19 183 21 122 -8 253 -71 325 -52 58 -119 93 -216 112 -81 15 -222 17 -292 3z m323 -469 c33 -12 34 -41 4 -100 -56 -111 -254 -158 -338 -80 -67 62 -25 146 90 181 37 11 215 11 244 -1z"/>
    <path class="word" d="M8394 1886 c-57 -27 -113 -88 -144 -160 -48 -107 -86 -431 -61 -509 22 -66 90 -95 154 -66 37 17 48 45 58 148 20 204 68 352 116 359 30 4 48 -27 84 -141 20 -65 40 -109 61 -132 28 -33 34 -35 94 -35 59 0 67 3 101 34 22 19 62 78 93 136 57 108 98 160 124 160 8 0 23 -15 33 -32 15 -28 19 -68 23 -246 l5 -214 29 -25 c25 -21 37 -24 75 -20 82 9 104 59 122 280 16 194 -11 338 -76 415 -48 55 -107 77 -186 68 -101 -10 -134 -38 -243 -203 -39 -59 -76 -109 -82 -110 -11 -4 -29 32 -64 128 -11 31 -34 77 -51 102 -56 85 -163 111 -265 63z"/>
    <path class="word" d="M5006 1855 c-29 -27 -53 -75 -110 -225 -40 -105 -108 -220 -129 -220 -40 0 -143 153 -211 310 -56 130 -79 150 -167 150 -47 0 -60 -4 -82 -25 -13 -14 -27 -38 -30 -53 -14 -71 36 -197 124 -315 50 -66 107 -118 202 -184 28 -19 47 -40 47 -51 0 -28 -84 -109 -186 -179 -104 -71 -122 -89 -130 -130 -5 -26 -1 -37 19 -57 22 -22 35 -26 79 -26 29 1 69 7 89 14 119 42 367 268 478 435 149 225 223 451 176 540 -17 35 -32 41 -94 41 -37 0 -54 -6 -75 -25z"/>
    <path class="word" d="M3463 1863 c-31 -6 -80 -65 -92 -110 -16 -62 -33 -329 -30 -450 4 -107 5 -114 31 -140 23 -23 36 -27 81 -27 93 0 129 40 146 161 17 120 34 418 27 468 -10 66 -50 106 -103 104 -21 -1 -48 -4 -60 -6z"/>
    <path class="word" d="M5440 1129 c-184 -13 -253 -40 -224 -86 25 -41 73 -46 449 -51 389 -4 601 7 641 33 34 22 32 60 -5 79 -16 9 -78 20 -137 26 -125 12 -554 11 -724 -1z"/>
  </g>
</svg>
